<svg width="23" height="20" viewBox="0 0 23 20" fill="none" xmlns="http://www.w3.org/2000/svg">
<path fill-rule="evenodd" clip-rule="evenodd" d="M6.40576 18.3833L9.33995 19.1618V18.1438L9.57947 17.9043H11.2561V19.1019V19.9402H9.45971L7.24408 18.9821L6.40576 18.3833Z" fill="#CDBDB2"/>
<path fill-rule="evenodd" clip-rule="evenodd" d="M15.9873 18.3833L13.1131 19.1618V18.1438L12.8735 17.9043H11.1969V19.1019V19.9402H12.9933L15.2088 18.9821L15.9873 18.3833Z" fill="#CDBDB2"/>
<path fill-rule="evenodd" clip-rule="evenodd" d="M9.58181 16.1679L9.34229 18.1439L9.64163 17.9043H12.7554L13.1147 18.1439L12.8752 16.1679L12.3961 15.8684L10.0009 15.9283L9.58181 16.1679Z" fill="#393939"/>
<path fill-rule="evenodd" clip-rule="evenodd" d="M7.96387 2.81445L9.40099 6.16775L10.0597 15.9283H12.395L13.1136 6.16775L14.4309 2.81445H7.96387Z" fill="#F89C35"/>
<path fill-rule="evenodd" clip-rule="evenodd" d="M1.67665 10.18L0 15.0302L4.19162 14.7907H6.88617V12.6949L6.76641 8.38354L6.16761 8.86259L1.67665 10.18Z" fill="#F89D35"/>
<path fill-rule="evenodd" clip-rule="evenodd" d="M4.8501 10.7188L9.76028 10.8385L9.22141 13.3535L6.88603 12.7547L4.8501 10.7188Z" fill="#D87C30"/>
<path fill-rule="evenodd" clip-rule="evenodd" d="M4.8501 10.7781L6.88602 12.6942V14.6104L4.8501 10.7781Z" fill="#EA8D3A"/>
<path fill-rule="evenodd" clip-rule="evenodd" d="M6.88574 12.7549L9.28095 13.3537L10.0594 15.9286L9.52047 16.2279L6.88574 14.6711V12.7549Z" fill="#F89D35"/>
<path fill-rule="evenodd" clip-rule="evenodd" d="M6.8848 14.6709L6.40576 18.3835L9.57947 16.168L6.8848 14.6709Z" fill="#EB8F35"/>
<path fill-rule="evenodd" clip-rule="evenodd" d="M9.76042 10.8384L10.0599 15.9283L9.16162 13.3234L9.76042 10.8384Z" fill="#EA8E3A"/>
<path fill-rule="evenodd" clip-rule="evenodd" d="M4.13184 14.7308L6.88633 14.6709L6.40728 18.3835L4.13184 14.7308Z" fill="#D87C30"/>
<path fill-rule="evenodd" clip-rule="evenodd" d="M1.31736 19.9999L6.40713 18.3831L4.13168 14.7305L0 15.0298L1.31736 19.9999Z" fill="#EB8F35"/>
<path fill-rule="evenodd" clip-rule="evenodd" d="M9.401 6.16748L6.8262 8.32317L4.8501 10.7184L9.76028 10.8981L9.401 6.16748Z" fill="#E8821E"/>
<path fill-rule="evenodd" clip-rule="evenodd" d="M6.40576 18.3832L9.57947 16.1677L9.33995 18.0839V19.1617L7.18426 18.7425L6.40576 18.3832Z" fill="#DFCEC3"/>
<path fill-rule="evenodd" clip-rule="evenodd" d="M15.9873 18.3832L12.8735 16.1677L13.1131 18.0839V19.1617L15.2687 18.7425L15.9873 18.3832Z" fill="#DFCEC3"/>
<path fill-rule="evenodd" clip-rule="evenodd" d="M8.44307 11.9165L9.10181 13.2938L6.76642 12.695L8.44307 11.9165Z" fill="#393939"/>
<path fill-rule="evenodd" clip-rule="evenodd" d="M1.25781 0L9.40152 6.16761L8.02433 2.81432L1.25781 0Z" fill="#E88F35"/>
<path fill-rule="evenodd" clip-rule="evenodd" d="M1.25802 0L0.180176 3.29341L0.778978 6.88623L0.359816 7.12575L0.958619 7.66467L0.479577 8.08383L1.13826 8.68263L0.719098 9.04192L1.67718 10.2395L6.1682 8.86228C8.36381 7.10579 9.44165 6.20758 9.40173 6.16766C9.36181 6.12774 6.64724 4.07186 1.25802 0Z" fill="#8E5A30"/>
<path fill-rule="evenodd" clip-rule="evenodd" d="M20.7198 10.18L22.3965 15.0302L18.2049 14.7907H15.5103V12.6949L15.6301 8.38354L16.2289 8.86259L20.7198 10.18Z" fill="#F89D35"/>
<path fill-rule="evenodd" clip-rule="evenodd" d="M17.5464 10.7188L12.6362 10.8385L13.1751 13.3535L15.5105 12.7547L17.5464 10.7188Z" fill="#D87C30"/>
<path fill-rule="evenodd" clip-rule="evenodd" d="M17.5464 10.7781L15.5105 12.6942V14.6104L17.5464 10.7781Z" fill="#EA8D3A"/>
<path fill-rule="evenodd" clip-rule="evenodd" d="M15.5105 12.7544L13.1153 13.3532L12.3368 15.9281L12.8758 16.2274L15.5105 14.6706V12.7544Z" fill="#F89D35"/>
<path fill-rule="evenodd" clip-rule="evenodd" d="M15.5109 14.6709L15.99 18.3835L12.8762 16.2278L15.5109 14.6709Z" fill="#EB8F35"/>
<path fill-rule="evenodd" clip-rule="evenodd" d="M12.6361 10.8384L12.3366 15.9283L13.2349 13.3234L12.6361 10.8384Z" fill="#EA8E3A"/>
<path fill-rule="evenodd" clip-rule="evenodd" d="M18.2666 14.7308L15.5121 14.6709L15.9912 18.3835L18.2666 14.7308Z" fill="#D87C30"/>
<path fill-rule="evenodd" clip-rule="evenodd" d="M21.0791 19.9999L15.9894 18.3831L18.2648 14.7305L22.3965 15.0298L21.0791 19.9999Z" fill="#EB8F35"/>
<path fill-rule="evenodd" clip-rule="evenodd" d="M12.9955 6.16748L15.5703 8.32317L17.5464 10.7184L12.6362 10.8981L12.9955 6.16748Z" fill="#E8821E"/>
<path fill-rule="evenodd" clip-rule="evenodd" d="M13.9534 11.916L13.2947 13.2933L15.6301 12.6945L13.9534 11.916Z" fill="#393939"/>
<path fill-rule="evenodd" clip-rule="evenodd" d="M21.1389 0L12.9952 6.16761L14.3724 2.81432L21.1389 0Z" fill="#E88F35"/>
<path fill-rule="evenodd" clip-rule="evenodd" d="M21.1397 0L22.2175 3.29341L21.6187 6.88623L22.0379 7.12575L21.4391 7.66467L21.9181 8.08383L21.2594 8.68263L21.6786 9.04192L20.7205 10.2395L16.2295 8.86228C14.0339 7.10579 12.9561 6.20758 12.996 6.16766C13.0359 6.12774 15.7505 4.07186 21.1397 0Z" fill="#8E5A30"/>
</svg>
